<svg xmlns="http://www.w3.org/2000/svg" width="26" height="26" viewBox="0 0 26 26">
  <g id="dribbble" transform="translate(-20.5 -4.499)">
    <path id="Path_1" data-name="Path 1" d="M1.5,14.447v.106a12.944,12.944,0,0,0,3.063,8.329,13.078,13.078,0,0,0,3.992,3.181A13,13,0,0,0,23.16,4.806,12.992,12.992,0,0,0,1.5,14.447Zm23.023,3.621A10.653,10.653,0,0,0,22.085,7.044,12.917,12.917,0,0,1,18.36,11.01a13.046,13.046,0,0,1,.872,4.526,13.129,13.129,0,0,1,5.29,2.531Zm-5.484-.147a10.693,10.693,0,0,1,4.409,2.33,10.63,10.63,0,0,1-8.264,4.864,12.964,12.964,0,0,0,2.828-3.935,13.076,13.076,0,0,0,1.028-3.259Zm-2.181-2.687a10.666,10.666,0,0,0-.585-3.051,12.97,12.97,0,0,1-11.978-.7,10.662,10.662,0,0,0,1.539,9.183,13.02,13.02,0,0,1,11.024-5.434ZM7.464,22.477A10.648,10.648,0,0,1,16.695,17.6a10.661,10.661,0,0,1-4.945,7.181,10.613,10.613,0,0,1-4.287-2.3ZM14.5,3.863a10.594,10.594,0,0,1,5.729,1.673A10.57,10.57,0,0,1,17.3,8.864a12.93,12.93,0,0,0-5.13-4.744A10.673,10.673,0,0,1,14.5,3.863ZM10.725,6.045a10.587,10.587,0,0,1,4.529,4.006,10.611,10.611,0,0,1-8.792-.091,10.735,10.735,0,0,1-1.234-.677A10.688,10.688,0,0,1,8.977,5.408a10.886,10.886,0,0,1,1.749.638Z" transform="translate(19 3)" fill="#ea3379" fill-rule="evenodd"/>
  </g>
</svg>
