<svg xmlns="http://www.w3.org/2000/svg" width="27.676" height="27" viewBox="0 0 27.676 27">
  <path id="github" d="M13.838,0a13.538,13.538,0,0,1,6.946,1.856A13.774,13.774,0,0,1,25.82,6.892a13.538,13.538,0,0,1,1.856,6.946,13.449,13.449,0,0,1-2.64,8.135,13.558,13.558,0,0,1-6.82,5,.808.808,0,0,1-.721-.126.7.7,0,0,1-.234-.54q0-.054.009-1.378t.009-2.423a3.209,3.209,0,0,0-.937-2.559,12.372,12.372,0,0,0,1.847-.324,7.356,7.356,0,0,0,1.694-.7,5.029,5.029,0,0,0,1.459-1.2,5.59,5.59,0,0,0,.955-1.892,9.088,9.088,0,0,0,.371-2.712,5.337,5.337,0,0,0-1.424-3.712A4.8,4.8,0,0,0,21.1,5.731a2.359,2.359,0,0,0-1.459.2,9.734,9.734,0,0,0-1.657.793l-.685.433a13.016,13.016,0,0,0-6.919,0q-.288-.2-.766-.487a10.838,10.838,0,0,0-1.5-.694A2.479,2.479,0,0,0,6.577,5.73a4.8,4.8,0,0,0-.145,3.676,5.337,5.337,0,0,0-1.424,3.712,9.006,9.006,0,0,0,.369,2.7,5.772,5.772,0,0,0,.947,1.892,4.883,4.883,0,0,0,1.451,1.207,7.319,7.319,0,0,0,1.694.7,12.419,12.419,0,0,0,1.847.324,3.042,3.042,0,0,0-.883,1.856,3.6,3.6,0,0,1-.811.271,5.037,5.037,0,0,1-1.027.09,2.131,2.131,0,0,1-1.18-.387,3.167,3.167,0,0,1-1-1.126,2.9,2.9,0,0,0-.874-.937,2.638,2.638,0,0,0-.892-.433l-.361-.054a1.176,1.176,0,0,0-.523.081q-.145.081-.09.208a.993.993,0,0,0,.162.252,1.326,1.326,0,0,0,.234.216l.126.09a2.17,2.17,0,0,1,.784.685,4.518,4.518,0,0,1,.567.919l.18.414A2.283,2.283,0,0,0,6.522,23.2a2.809,2.809,0,0,0,1.207.54,7.621,7.621,0,0,0,1.252.126,5.368,5.368,0,0,0,1-.063l.414-.072q0,.685.009,1.594t.009.982a.7.7,0,0,1-.234.54.808.808,0,0,1-.721.126,13.553,13.553,0,0,1-6.82-5A13.448,13.448,0,0,1,0,13.838,13.538,13.538,0,0,1,1.856,6.892,13.774,13.774,0,0,1,6.892,1.856,13.538,13.538,0,0,1,13.838,0Zm-8.6,19.875q.054-.126-.126-.216-.18-.054-.234.036-.054.126.126.216Q5.171,20.019,5.243,19.875Zm.559.613q.126-.09-.036-.288-.18-.162-.288-.054-.126.09.036.288Q5.694,20.613,5.8,20.487Zm.54.811q.162-.126,0-.342-.145-.234-.306-.108-.162.09,0,.324T6.342,21.3Zm.756.756q.145-.145-.072-.342-.216-.216-.361-.054Q6.5,21.8,6.738,22,6.954,22.217,7.1,22.055Zm1.027.451q.054-.2-.234-.288-.271-.072-.342.126t.234.271q.271.108.342-.108Zm1.135.09q0-.234-.306-.2-.288,0-.288.2,0,.234.306.2Q9.262,22.794,9.262,22.6Zm1.045-.18q-.036-.2-.324-.162-.288.054-.252.271t.324.145q.288-.072.252-.252Z" fill="#fff"/>
</svg>
