<svg xmlns="http://www.w3.org/2000/svg" width="22" height="22" viewBox="0 0 22 22">
  <g id="go-down" transform="translate(-1641 -881)">
    <g id="Ellipse_1" data-name="Ellipse 1" transform="translate(1641 881)" fill="none" stroke="#fff" stroke-width="1">
      <circle cx="11" cy="11" r="11" stroke="none"/>
      <circle cx="11" cy="11" r="10.5" fill="none"/>
    </g>
    <g id="Group_1" data-name="Group 1" transform="translate(1648.672 884.512)">
      <path id="bxs-down-arrow" d="M6.057,12.348a.332.332,0,0,0,.547,0l3-4.326A.332.332,0,0,0,9.326,7.5H3.336a.333.333,0,0,0-.274.522Z" transform="translate(-3.004 2.484)" fill="#fff"/>
      <path id="bx-down-arrow" d="M9.621,7.678A.333.333,0,0,0,9.326,7.5H3.336a.333.333,0,0,0-.274.522l3,4.326a.332.332,0,0,0,.547,0l3-4.326a.332.332,0,0,0,.021-.344Zm-3.29,3.9L3.971,8.166h4.72Z" transform="translate(-3.003 -2.508)" fill="#fff"/>
      <path id="bxs-down-arrow-2" data-name="bxs-down-arrow" d="M6.057,12.348a.332.332,0,0,0,.547,0l3-4.326A.332.332,0,0,0,9.326,7.5H3.336a.333.333,0,0,0-.274.522Z" transform="translate(-3.003 -7.5)" fill="#fff"/>
    </g>
  </g>
</svg>
