<svg xmlns="http://www.w3.org/2000/svg" width="26" height="26" viewBox="0 0 26 26">
  <g id="linkedin" transform="translate(-618 -1008)">
    <rect id="Rectangle_2" data-name="Rectangle 2" width="22" height="20" transform="translate(620.3 1012)" fill="#fff"/>
    <path id="linkedin-2" data-name="linkedin" d="M0,0V26H26V0ZM6.377,5.111A2.035,2.035,0,0,1,8.465,7.063,2.021,2.021,0,0,1,6.35,9.016H6.321A2.031,2.031,0,0,1,4.26,7.063,2.049,2.049,0,0,1,6.377,5.111Zm11.048,5.168A4.167,4.167,0,0,1,20.5,11.517a5.832,5.832,0,0,1,1.238,3.847V21.85H18V15.8c-.009-1.133-.4-2.51-1.9-2.557a2.133,2.133,0,0,0-1.923,1.374,2.45,2.45,0,0,0-.138.906v6.322H10.307c.014-3.16.034-6.321.027-9.482q0-1.347-.027-1.814h3.737v1.593a5.038,5.038,0,0,1,1.141-1.223,3.869,3.869,0,0,1,2.239-.646ZM4.48,10.555H8.217v11.3H4.48v-11.3Z" transform="translate(618 1008)" fill="#0a62ab"/>
  </g>
</svg>
